<?xml version="1.0" encoding="utf-8" standalone="no"?>
<!DOCTYPE svg PUBLIC "-//W3C//DTD SVG 1.1//EN"
  "http://www.w3.org/Graphics/SVG/1.1/DTD/svg11.dtd">
<!-- Created with matplotlib (https://matplotlib.org/) -->
<svg height="576pt" version="1.1" viewBox="0 0 1008 576" width="1008pt" xmlns="http://www.w3.org/2000/svg" xmlns:xlink="http://www.w3.org/1999/xlink">
 <defs>
  <style type="text/css">
*{stroke-linecap:butt;stroke-linejoin:round;}
  </style>
 </defs>
 <g id="figure_1">
  <g id="patch_1">
   <path d="M 0 576 
L 1008 576 
L 1008 0 
L 0 0 
z
" style="fill:#ffffff;"/>
  </g>
  <g id="axes_1">
   <g id="patch_2">
    <path d="M 126 504 
L 907.2 504 
L 907.2 69.12 
L 126 69.12 
z
" style="fill:#ffffff;"/>
   </g>
   <g id="PolyCollection_1">
    <defs>
     <path d="M 759.129412 -346.212119 
L 759.129412 -302.345756 
L 764.235294 -282.43368 
L 769.341176 -273.89873 
L 774.447059 -278.679102 
L 779.552941 -290.261793 
L 784.658824 -297.885229 
L 789.764706 -294.128384 
L 794.870588 -280.331897 
L 799.976471 -265.615819 
L 805.082353 -259.866028 
L 810.188235 -266.221825 
L 815.294118 -278.883768 
L 820.4 -287.546346 
L 825.505882 -284.99524 
L 830.611765 -272.490526 
L 835.717647 -258.897672 
L 840.823529 -253.93706 
L 845.929412 -260.789072 
L 851.035294 -273.818529 
L 856.141176 -282.886397 
L 861.247059 -280.869279 
L 866.352941 -268.988845 
L 871.458824 -255.968796 
L 876.564706 -251.415637 
L 881.670588 -258.515818 
L 886.776471 -271.729747 
L 891.882353 -281.024791 
L 896.988235 -279.335378 
L 902.094118 -267.854067 
L 907.2 -255.20391 
L 907.2 -472.23624 
L 907.2 -472.23624 
L 902.094118 -480.191034 
L 896.988235 -487.112727 
L 891.882353 -485.096817 
L 886.776471 -472.893528 
L 881.670588 -456.933147 
L 876.564706 -446.471789 
L 871.458824 -446.534469 
L 866.352941 -454.185086 
L 861.247059 -460.813512 
L 856.141176 -458.536232 
L 851.035294 -446.082596 
L 845.929412 -429.842422 
L 840.823529 -419.037122 
L 835.717647 -418.668231 
L 830.611765 -425.811813 
L 825.505882 -431.922184 
L 820.4 -429.177661 
L 815.294118 -416.295706 
L 810.188235 -399.592464 
L 805.082353 -388.194743 
L 799.976471 -387.012246 
L 794.870588 -393.098423 
L 789.764706 -398.023619 
L 784.658824 -394.140515 
L 779.552941 -380.196532 
L 774.447059 -362.31825 
L 769.341176 -349.248459 
L 764.235294 -345.256071 
L 759.129412 -346.212119 
z
" id="meab6c1f038" style="stroke:#808080;stroke-opacity:0.2;"/>
    </defs>
    <g clip-path="url(#pc722592363)">
     <use style="fill:#808080;fill-opacity:0.2;stroke:#808080;stroke-opacity:0.2;" x="0" xlink:href="#meab6c1f038" y="576"/>
    </g>
   </g>
   <g id="matplotlib.axis_1">
    <g id="xtick_1">
     <g id="line2d_1">
      <defs>
       <path d="M 0 0 
L 0 3.5 
" id="m4aa36b0f34" style="stroke:#000000;stroke-width:0.8;"/>
      </defs>
      <g>
       <use style="stroke:#000000;stroke-width:0.8;" x="126" xlink:href="#m4aa36b0f34" y="504"/>
      </g>
     </g>
    </g>
    <g id="xtick_2">
     <g id="line2d_2">
      <g>
       <use style="stroke:#000000;stroke-width:0.8;" x="279.176471" xlink:href="#m4aa36b0f34" y="504"/>
      </g>
     </g>
     <g id="text_1">
      <!-- Apr -->
      <defs>
       <path d="M 34.1875 63.1875 
L 20.796875 26.90625 
L 47.609375 26.90625 
z
M 28.609375 72.90625 
L 39.796875 72.90625 
L 67.578125 0 
L 57.328125 0 
L 50.6875 18.703125 
L 17.828125 18.703125 
L 11.1875 0 
L 0.78125 0 
z
" id="DejaVuSans-65"/>
       <path d="M 18.109375 8.203125 
L 18.109375 -20.796875 
L 9.078125 -20.796875 
L 9.078125 54.6875 
L 18.109375 54.6875 
L 18.109375 46.390625 
Q 20.953125 51.265625 25.265625 53.625 
Q 29.59375 56 35.59375 56 
Q 45.5625 56 51.78125 48.09375 
Q 58.015625 40.1875 58.015625 27.296875 
Q 58.015625 14.40625 51.78125 6.484375 
Q 45.5625 -1.421875 35.59375 -1.421875 
Q 29.59375 -1.421875 25.265625 0.953125 
Q 20.953125 3.328125 18.109375 8.203125 
z
M 48.6875 27.296875 
Q 48.6875 37.203125 44.609375 42.84375 
Q 40.53125 48.484375 33.40625 48.484375 
Q 26.265625 48.484375 22.1875 42.84375 
Q 18.109375 37.203125 18.109375 27.296875 
Q 18.109375 17.390625 22.1875 11.75 
Q 26.265625 6.109375 33.40625 6.109375 
Q 40.53125 6.109375 44.609375 11.75 
Q 48.6875 17.390625 48.6875 27.296875 
z
" id="DejaVuSans-112"/>
       <path d="M 41.109375 46.296875 
Q 39.59375 47.171875 37.8125 47.578125 
Q 36.03125 48 33.890625 48 
Q 26.265625 48 22.1875 43.046875 
Q 18.109375 38.09375 18.109375 28.8125 
L 18.109375 0 
L 9.078125 0 
L 9.078125 54.6875 
L 18.109375 54.6875 
L 18.109375 46.1875 
Q 20.953125 51.171875 25.484375 53.578125 
Q 30.03125 56 36.53125 56 
Q 37.453125 56 38.578125 55.875 
Q 39.703125 55.765625 41.0625 55.515625 
z
" id="DejaVuSans-114"/>
      </defs>
      <g transform="translate(270.526471 518.598438)scale(0.1 -0.1)">
       <use xlink:href="#DejaVuSans-65"/>
       <use x="68.408203" xlink:href="#DejaVuSans-112"/>
       <use x="131.884766" xlink:href="#DejaVuSans-114"/>
      </g>
      <!-- 2020 -->
      <defs>
       <path d="M 19.1875 8.296875 
L 53.609375 8.296875 
L 53.609375 0 
L 7.328125 0 
L 7.328125 8.296875 
Q 12.9375 14.109375 22.625 23.890625 
Q 32.328125 33.6875 34.8125 36.53125 
Q 39.546875 41.84375 41.421875 45.53125 
Q 43.3125 49.21875 43.3125 52.78125 
Q 43.3125 58.59375 39.234375 62.25 
Q 35.15625 65.921875 28.609375 65.921875 
Q 23.96875 65.921875 18.8125 64.3125 
Q 13.671875 62.703125 7.8125 59.421875 
L 7.8125 69.390625 
Q 13.765625 71.78125 18.9375 73 
Q 24.125 74.21875 28.421875 74.21875 
Q 39.75 74.21875 46.484375 68.546875 
Q 53.21875 62.890625 53.21875 53.421875 
Q 53.21875 48.921875 51.53125 44.890625 
Q 49.859375 40.875 45.40625 35.40625 
Q 44.1875 33.984375 37.640625 27.21875 
Q 31.109375 20.453125 19.1875 8.296875 
z
" id="DejaVuSans-50"/>
       <path d="M 31.78125 66.40625 
Q 24.171875 66.40625 20.328125 58.90625 
Q 16.5 51.421875 16.5 36.375 
Q 16.5 21.390625 20.328125 13.890625 
Q 24.171875 6.390625 31.78125 6.390625 
Q 39.453125 6.390625 43.28125 13.890625 
Q 47.125 21.390625 47.125 36.375 
Q 47.125 51.421875 43.28125 58.90625 
Q 39.453125 66.40625 31.78125 66.40625 
z
M 31.78125 74.21875 
Q 44.046875 74.21875 50.515625 64.515625 
Q 56.984375 54.828125 56.984375 36.375 
Q 56.984375 17.96875 50.515625 8.265625 
Q 44.046875 -1.421875 31.78125 -1.421875 
Q 19.53125 -1.421875 13.0625 8.265625 
Q 6.59375 17.96875 6.59375 36.375 
Q 6.59375 54.828125 13.0625 64.515625 
Q 19.53125 74.21875 31.78125 74.21875 
z
" id="DejaVuSans-48"/>
      </defs>
      <g transform="translate(266.451471 529.79625)scale(0.1 -0.1)">
       <use xlink:href="#DejaVuSans-50"/>
       <use x="63.623047" xlink:href="#DejaVuSans-48"/>
       <use x="127.246094" xlink:href="#DejaVuSans-50"/>
       <use x="190.869141" xlink:href="#DejaVuSans-48"/>
      </g>
     </g>
    </g>
    <g id="xtick_3">
     <g id="line2d_3">
      <g>
       <use style="stroke:#000000;stroke-width:0.8;" x="432.352941" xlink:href="#m4aa36b0f34" y="504"/>
      </g>
     </g>
     <g id="text_2">
      <!-- May -->
      <defs>
       <path d="M 9.8125 72.90625 
L 24.515625 72.90625 
L 43.109375 23.296875 
L 61.8125 72.90625 
L 76.515625 72.90625 
L 76.515625 0 
L 66.890625 0 
L 66.890625 64.015625 
L 48.09375 14.015625 
L 38.1875 14.015625 
L 19.390625 64.015625 
L 19.390625 0 
L 9.8125 0 
z
" id="DejaVuSans-77"/>
       <path d="M 34.28125 27.484375 
Q 23.390625 27.484375 19.1875 25 
Q 14.984375 22.515625 14.984375 16.5 
Q 14.984375 11.71875 18.140625 8.90625 
Q 21.296875 6.109375 26.703125 6.109375 
Q 34.1875 6.109375 38.703125 11.40625 
Q 43.21875 16.703125 43.21875 25.484375 
L 43.21875 27.484375 
z
M 52.203125 31.203125 
L 52.203125 0 
L 43.21875 0 
L 43.21875 8.296875 
Q 40.140625 3.328125 35.546875 0.953125 
Q 30.953125 -1.421875 24.3125 -1.421875 
Q 15.921875 -1.421875 10.953125 3.296875 
Q 6 8.015625 6 15.921875 
Q 6 25.140625 12.171875 29.828125 
Q 18.359375 34.515625 30.609375 34.515625 
L 43.21875 34.515625 
L 43.21875 35.40625 
Q 43.21875 41.609375 39.140625 45 
Q 35.0625 48.390625 27.6875 48.390625 
Q 23 48.390625 18.546875 47.265625 
Q 14.109375 46.140625 10.015625 43.890625 
L 10.015625 52.203125 
Q 14.9375 54.109375 19.578125 55.046875 
Q 24.21875 56 28.609375 56 
Q 40.484375 56 46.34375 49.84375 
Q 52.203125 43.703125 52.203125 31.203125 
z
" id="DejaVuSans-97"/>
       <path d="M 32.171875 -5.078125 
Q 28.375 -14.84375 24.75 -17.8125 
Q 21.140625 -20.796875 15.09375 -20.796875 
L 7.90625 -20.796875 
L 7.90625 -13.28125 
L 13.1875 -13.28125 
Q 16.890625 -13.28125 18.9375 -11.515625 
Q 21 -9.765625 23.484375 -3.21875 
L 25.09375 0.875 
L 2.984375 54.6875 
L 12.5 54.6875 
L 29.59375 11.921875 
L 46.6875 54.6875 
L 56.203125 54.6875 
z
" id="DejaVuSans-121"/>
      </defs>
      <g transform="translate(422.015441 518.598438)scale(0.1 -0.1)">
       <use xlink:href="#DejaVuSans-77"/>
       <use x="86.279297" xlink:href="#DejaVuSans-97"/>
       <use x="147.558594" xlink:href="#DejaVuSans-121"/>
      </g>
     </g>
    </g>
    <g id="xtick_4">
     <g id="line2d_4">
      <g>
       <use style="stroke:#000000;stroke-width:0.8;" x="590.635294" xlink:href="#m4aa36b0f34" y="504"/>
      </g>
     </g>
     <g id="text_3">
      <!-- Jun -->
      <defs>
       <path d="M 9.8125 72.90625 
L 19.671875 72.90625 
L 19.671875 5.078125 
Q 19.671875 -8.109375 14.671875 -14.0625 
Q 9.671875 -20.015625 -1.421875 -20.015625 
L -5.171875 -20.015625 
L -5.171875 -11.71875 
L -2.09375 -11.71875 
Q 4.4375 -11.71875 7.125 -8.046875 
Q 9.8125 -4.390625 9.8125 5.078125 
z
" id="DejaVuSans-74"/>
       <path d="M 8.5 21.578125 
L 8.5 54.6875 
L 17.484375 54.6875 
L 17.484375 21.921875 
Q 17.484375 14.15625 20.5 10.265625 
Q 23.53125 6.390625 29.59375 6.390625 
Q 36.859375 6.390625 41.078125 11.03125 
Q 45.3125 15.671875 45.3125 23.6875 
L 45.3125 54.6875 
L 54.296875 54.6875 
L 54.296875 0 
L 45.3125 0 
L 45.3125 8.40625 
Q 42.046875 3.421875 37.71875 1 
Q 33.40625 -1.421875 27.6875 -1.421875 
Q 18.265625 -1.421875 13.375 4.4375 
Q 8.5 10.296875 8.5 21.578125 
z
M 31.109375 56 
z
" id="DejaVuSans-117"/>
       <path d="M 54.890625 33.015625 
L 54.890625 0 
L 45.90625 0 
L 45.90625 32.71875 
Q 45.90625 40.484375 42.875 44.328125 
Q 39.84375 48.1875 33.796875 48.1875 
Q 26.515625 48.1875 22.3125 43.546875 
Q 18.109375 38.921875 18.109375 30.90625 
L 18.109375 0 
L 9.078125 0 
L 9.078125 54.6875 
L 18.109375 54.6875 
L 18.109375 46.1875 
Q 21.34375 51.125 25.703125 53.5625 
Q 30.078125 56 35.796875 56 
Q 45.21875 56 50.046875 50.171875 
Q 54.890625 44.34375 54.890625 33.015625 
z
" id="DejaVuSans-110"/>
      </defs>
      <g transform="translate(582.822794 518.598438)scale(0.1 -0.1)">
       <use xlink:href="#DejaVuSans-74"/>
       <use x="29.492188" xlink:href="#DejaVuSans-117"/>
       <use x="92.871094" xlink:href="#DejaVuSans-110"/>
      </g>
     </g>
    </g>
    <g id="xtick_5">
     <g id="line2d_5">
      <g>
       <use style="stroke:#000000;stroke-width:0.8;" x="743.811765" xlink:href="#m4aa36b0f34" y="504"/>
      </g>
     </g>
     <g id="text_4">
      <!-- Jul -->
      <defs>
       <path d="M 9.421875 75.984375 
L 18.40625 75.984375 
L 18.40625 0 
L 9.421875 0 
z
" id="DejaVuSans-108"/>
      </defs>
      <g transform="translate(737.778952 518.598438)scale(0.1 -0.1)">
       <use xlink:href="#DejaVuSans-74"/>
       <use x="29.492188" xlink:href="#DejaVuSans-117"/>
       <use x="92.871094" xlink:href="#DejaVuSans-108"/>
      </g>
     </g>
    </g>
    <g id="xtick_6">
     <g id="line2d_6">
      <g>
       <use style="stroke:#000000;stroke-width:0.8;" x="902.094118" xlink:href="#m4aa36b0f34" y="504"/>
      </g>
     </g>
     <g id="text_5">
      <!-- Aug -->
      <defs>
       <path d="M 45.40625 27.984375 
Q 45.40625 37.75 41.375 43.109375 
Q 37.359375 48.484375 30.078125 48.484375 
Q 22.859375 48.484375 18.828125 43.109375 
Q 14.796875 37.75 14.796875 27.984375 
Q 14.796875 18.265625 18.828125 12.890625 
Q 22.859375 7.515625 30.078125 7.515625 
Q 37.359375 7.515625 41.375 12.890625 
Q 45.40625 18.265625 45.40625 27.984375 
z
M 54.390625 6.78125 
Q 54.390625 -7.171875 48.1875 -13.984375 
Q 42 -20.796875 29.203125 -20.796875 
Q 24.46875 -20.796875 20.265625 -20.09375 
Q 16.0625 -19.390625 12.109375 -17.921875 
L 12.109375 -9.1875 
Q 16.0625 -11.328125 19.921875 -12.34375 
Q 23.78125 -13.375 27.78125 -13.375 
Q 36.625 -13.375 41.015625 -8.765625 
Q 45.40625 -4.15625 45.40625 5.171875 
L 45.40625 9.625 
Q 42.625 4.78125 38.28125 2.390625 
Q 33.9375 0 27.875 0 
Q 17.828125 0 11.671875 7.65625 
Q 5.515625 15.328125 5.515625 27.984375 
Q 5.515625 40.671875 11.671875 48.328125 
Q 17.828125 56 27.875 56 
Q 33.9375 56 38.28125 53.609375 
Q 42.625 51.21875 45.40625 46.390625 
L 45.40625 54.6875 
L 54.390625 54.6875 
z
" id="DejaVuSans-103"/>
      </defs>
      <g transform="translate(892.330836 518.598438)scale(0.1 -0.1)">
       <use xlink:href="#DejaVuSans-65"/>
       <use x="68.408203" xlink:href="#DejaVuSans-117"/>
       <use x="131.787109" xlink:href="#DejaVuSans-103"/>
      </g>
     </g>
    </g>
    <g id="xtick_7">
     <g id="line2d_7">
      <g>
       <use style="stroke:#000000;stroke-width:0.8;" x="907.2" xlink:href="#m4aa36b0f34" y="504"/>
      </g>
     </g>
    </g>
    <g id="xtick_8">
     <g id="line2d_8">
      <defs>
       <path d="M 0 0 
L 0 2 
" id="m3eb750a7e8" style="stroke:#000000;stroke-width:0.6;"/>
      </defs>
      <g>
       <use style="stroke:#000000;stroke-width:0.6;" x="161.741176" xlink:href="#m3eb750a7e8" y="504"/>
      </g>
     </g>
    </g>
    <g id="xtick_9">
     <g id="line2d_9">
      <g>
       <use style="stroke:#000000;stroke-width:0.6;" x="197.482353" xlink:href="#m3eb750a7e8" y="504"/>
      </g>
     </g>
    </g>
    <g id="xtick_10">
     <g id="line2d_10">
      <g>
       <use style="stroke:#000000;stroke-width:0.6;" x="233.223529" xlink:href="#m3eb750a7e8" y="504"/>
      </g>
     </g>
    </g>
    <g id="xtick_11">
     <g id="line2d_11">
      <g>
       <use style="stroke:#000000;stroke-width:0.6;" x="268.964706" xlink:href="#m3eb750a7e8" y="504"/>
      </g>
     </g>
    </g>
    <g id="xtick_12">
     <g id="line2d_12">
      <g>
       <use style="stroke:#000000;stroke-width:0.6;" x="304.705882" xlink:href="#m3eb750a7e8" y="504"/>
      </g>
     </g>
    </g>
    <g id="xtick_13">
     <g id="line2d_13">
      <g>
       <use style="stroke:#000000;stroke-width:0.6;" x="340.447059" xlink:href="#m3eb750a7e8" y="504"/>
      </g>
     </g>
    </g>
    <g id="xtick_14">
     <g id="line2d_14">
      <g>
       <use style="stroke:#000000;stroke-width:0.6;" x="376.188235" xlink:href="#m3eb750a7e8" y="504"/>
      </g>
     </g>
    </g>
    <g id="xtick_15">
     <g id="line2d_15">
      <g>
       <use style="stroke:#000000;stroke-width:0.6;" x="411.929412" xlink:href="#m3eb750a7e8" y="504"/>
      </g>
     </g>
    </g>
    <g id="xtick_16">
     <g id="line2d_16">
      <g>
       <use style="stroke:#000000;stroke-width:0.6;" x="447.670588" xlink:href="#m3eb750a7e8" y="504"/>
      </g>
     </g>
    </g>
    <g id="xtick_17">
     <g id="line2d_17">
      <g>
       <use style="stroke:#000000;stroke-width:0.6;" x="483.411765" xlink:href="#m3eb750a7e8" y="504"/>
      </g>
     </g>
    </g>
    <g id="xtick_18">
     <g id="line2d_18">
      <g>
       <use style="stroke:#000000;stroke-width:0.6;" x="519.152941" xlink:href="#m3eb750a7e8" y="504"/>
      </g>
     </g>
    </g>
    <g id="xtick_19">
     <g id="line2d_19">
      <g>
       <use style="stroke:#000000;stroke-width:0.6;" x="554.894118" xlink:href="#m3eb750a7e8" y="504"/>
      </g>
     </g>
    </g>
    <g id="xtick_20">
     <g id="line2d_20">
      <g>
       <use style="stroke:#000000;stroke-width:0.6;" x="626.376471" xlink:href="#m3eb750a7e8" y="504"/>
      </g>
     </g>
    </g>
    <g id="xtick_21">
     <g id="line2d_21">
      <g>
       <use style="stroke:#000000;stroke-width:0.6;" x="662.117647" xlink:href="#m3eb750a7e8" y="504"/>
      </g>
     </g>
    </g>
    <g id="xtick_22">
     <g id="line2d_22">
      <g>
       <use style="stroke:#000000;stroke-width:0.6;" x="697.858824" xlink:href="#m3eb750a7e8" y="504"/>
      </g>
     </g>
    </g>
    <g id="xtick_23">
     <g id="line2d_23">
      <g>
       <use style="stroke:#000000;stroke-width:0.6;" x="733.6" xlink:href="#m3eb750a7e8" y="504"/>
      </g>
     </g>
    </g>
    <g id="xtick_24">
     <g id="line2d_24">
      <g>
       <use style="stroke:#000000;stroke-width:0.6;" x="769.341176" xlink:href="#m3eb750a7e8" y="504"/>
      </g>
     </g>
    </g>
    <g id="xtick_25">
     <g id="line2d_25">
      <g>
       <use style="stroke:#000000;stroke-width:0.6;" x="805.082353" xlink:href="#m3eb750a7e8" y="504"/>
      </g>
     </g>
    </g>
    <g id="xtick_26">
     <g id="line2d_26">
      <g>
       <use style="stroke:#000000;stroke-width:0.6;" x="840.823529" xlink:href="#m3eb750a7e8" y="504"/>
      </g>
     </g>
    </g>
    <g id="xtick_27">
     <g id="line2d_27">
      <g>
       <use style="stroke:#000000;stroke-width:0.6;" x="876.564706" xlink:href="#m3eb750a7e8" y="504"/>
      </g>
     </g>
    </g>
   </g>
   <g id="matplotlib.axis_2">
    <g id="ytick_1">
     <g id="line2d_28">
      <defs>
       <path d="M 0 0 
L -3.5 0 
" id="m8710572b80" style="stroke:#000000;stroke-width:0.8;"/>
      </defs>
      <g>
       <use style="stroke:#000000;stroke-width:0.8;" x="126" xlink:href="#m8710572b80" y="484.325626"/>
      </g>
     </g>
     <g id="text_6">
      <!-- 0 -->
      <g transform="translate(112.6375 488.124844)scale(0.1 -0.1)">
       <use xlink:href="#DejaVuSans-48"/>
      </g>
     </g>
    </g>
    <g id="ytick_2">
     <g id="line2d_29">
      <g>
       <use style="stroke:#000000;stroke-width:0.8;" x="126" xlink:href="#m8710572b80" y="391.427234"/>
      </g>
     </g>
     <g id="text_7">
      <!-- 20000 -->
      <g transform="translate(87.1875 395.226453)scale(0.1 -0.1)">
       <use xlink:href="#DejaVuSans-50"/>
       <use x="63.623047" xlink:href="#DejaVuSans-48"/>
       <use x="127.246094" xlink:href="#DejaVuSans-48"/>
       <use x="190.869141" xlink:href="#DejaVuSans-48"/>
       <use x="254.492188" xlink:href="#DejaVuSans-48"/>
      </g>
     </g>
    </g>
    <g id="ytick_3">
     <g id="line2d_30">
      <g>
       <use style="stroke:#000000;stroke-width:0.8;" x="126" xlink:href="#m8710572b80" y="298.528843"/>
      </g>
     </g>
     <g id="text_8">
      <!-- 40000 -->
      <defs>
       <path d="M 37.796875 64.3125 
L 12.890625 25.390625 
L 37.796875 25.390625 
z
M 35.203125 72.90625 
L 47.609375 72.90625 
L 47.609375 25.390625 
L 58.015625 25.390625 
L 58.015625 17.1875 
L 47.609375 17.1875 
L 47.609375 0 
L 37.796875 0 
L 37.796875 17.1875 
L 4.890625 17.1875 
L 4.890625 26.703125 
z
" id="DejaVuSans-52"/>
      </defs>
      <g transform="translate(87.1875 302.328062)scale(0.1 -0.1)">
       <use xlink:href="#DejaVuSans-52"/>
       <use x="63.623047" xlink:href="#DejaVuSans-48"/>
       <use x="127.246094" xlink:href="#DejaVuSans-48"/>
       <use x="190.869141" xlink:href="#DejaVuSans-48"/>
       <use x="254.492188" xlink:href="#DejaVuSans-48"/>
      </g>
     </g>
    </g>
    <g id="ytick_4">
     <g id="line2d_31">
      <g>
       <use style="stroke:#000000;stroke-width:0.8;" x="126" xlink:href="#m8710572b80" y="205.630452"/>
      </g>
     </g>
     <g id="text_9">
      <!-- 60000 -->
      <defs>
       <path d="M 33.015625 40.375 
Q 26.375 40.375 22.484375 35.828125 
Q 18.609375 31.296875 18.609375 23.390625 
Q 18.609375 15.53125 22.484375 10.953125 
Q 26.375 6.390625 33.015625 6.390625 
Q 39.65625 6.390625 43.53125 10.953125 
Q 47.40625 15.53125 47.40625 23.390625 
Q 47.40625 31.296875 43.53125 35.828125 
Q 39.65625 40.375 33.015625 40.375 
z
M 52.59375 71.296875 
L 52.59375 62.3125 
Q 48.875 64.0625 45.09375 64.984375 
Q 41.3125 65.921875 37.59375 65.921875 
Q 27.828125 65.921875 22.671875 59.328125 
Q 17.53125 52.734375 16.796875 39.40625 
Q 19.671875 43.65625 24.015625 45.921875 
Q 28.375 48.1875 33.59375 48.1875 
Q 44.578125 48.1875 50.953125 41.515625 
Q 57.328125 34.859375 57.328125 23.390625 
Q 57.328125 12.15625 50.6875 5.359375 
Q 44.046875 -1.421875 33.015625 -1.421875 
Q 20.359375 -1.421875 13.671875 8.265625 
Q 6.984375 17.96875 6.984375 36.375 
Q 6.984375 53.65625 15.1875 63.9375 
Q 23.390625 74.21875 37.203125 74.21875 
Q 40.921875 74.21875 44.703125 73.484375 
Q 48.484375 72.75 52.59375 71.296875 
z
" id="DejaVuSans-54"/>
      </defs>
      <g transform="translate(87.1875 209.42967)scale(0.1 -0.1)">
       <use xlink:href="#DejaVuSans-54"/>
       <use x="63.623047" xlink:href="#DejaVuSans-48"/>
       <use x="127.246094" xlink:href="#DejaVuSans-48"/>
       <use x="190.869141" xlink:href="#DejaVuSans-48"/>
       <use x="254.492188" xlink:href="#DejaVuSans-48"/>
      </g>
     </g>
    </g>
    <g id="ytick_5">
     <g id="line2d_32">
      <g>
       <use style="stroke:#000000;stroke-width:0.8;" x="126" xlink:href="#m8710572b80" y="112.73206"/>
      </g>
     </g>
     <g id="text_10">
      <!-- 80000 -->
      <defs>
       <path d="M 31.78125 34.625 
Q 24.75 34.625 20.71875 30.859375 
Q 16.703125 27.09375 16.703125 20.515625 
Q 16.703125 13.921875 20.71875 10.15625 
Q 24.75 6.390625 31.78125 6.390625 
Q 38.8125 6.390625 42.859375 10.171875 
Q 46.921875 13.96875 46.921875 20.515625 
Q 46.921875 27.09375 42.890625 30.859375 
Q 38.875 34.625 31.78125 34.625 
z
M 21.921875 38.8125 
Q 15.578125 40.375 12.03125 44.71875 
Q 8.5 49.078125 8.5 55.328125 
Q 8.5 64.0625 14.71875 69.140625 
Q 20.953125 74.21875 31.78125 74.21875 
Q 42.671875 74.21875 48.875 69.140625 
Q 55.078125 64.0625 55.078125 55.328125 
Q 55.078125 49.078125 51.53125 44.71875 
Q 48 40.375 41.703125 38.8125 
Q 48.828125 37.15625 52.796875 32.3125 
Q 56.78125 27.484375 56.78125 20.515625 
Q 56.78125 9.90625 50.3125 4.234375 
Q 43.84375 -1.421875 31.78125 -1.421875 
Q 19.734375 -1.421875 13.25 4.234375 
Q 6.78125 9.90625 6.78125 20.515625 
Q 6.78125 27.484375 10.78125 32.3125 
Q 14.796875 37.15625 21.921875 38.8125 
z
M 18.3125 54.390625 
Q 18.3125 48.734375 21.84375 45.5625 
Q 25.390625 42.390625 31.78125 42.390625 
Q 38.140625 42.390625 41.71875 45.5625 
Q 45.3125 48.734375 45.3125 54.390625 
Q 45.3125 60.0625 41.71875 63.234375 
Q 38.140625 66.40625 31.78125 66.40625 
Q 25.390625 66.40625 21.84375 63.234375 
Q 18.3125 60.0625 18.3125 54.390625 
z
" id="DejaVuSans-56"/>
      </defs>
      <g transform="translate(87.1875 116.531279)scale(0.1 -0.1)">
       <use xlink:href="#DejaVuSans-56"/>
       <use x="63.623047" xlink:href="#DejaVuSans-48"/>
       <use x="127.246094" xlink:href="#DejaVuSans-48"/>
       <use x="190.869141" xlink:href="#DejaVuSans-48"/>
       <use x="254.492188" xlink:href="#DejaVuSans-48"/>
      </g>
     </g>
    </g>
   </g>
   <g id="line2d_33">
    <path clip-path="url(#pc722592363)" d="M 126 484.218793 
L 131.105882 484.232727 
L 136.211765 484.181633 
L 141.317647 484.000481 
L 146.423529 484.10267 
L 151.529412 483.79146 
L 156.635294 483.796105 
L 161.741176 484.009771 
L 166.847059 483.433801 
L 171.952941 482.476948 
L 177.058824 482.226122 
L 182.164706 481.557254 
L 187.270588 481.013798 
L 192.376471 483.870424 
L 197.482353 477.859898 
L 202.588235 476.053024 
L 207.694118 471.431329 
L 212.8 459.986247 
L 217.905882 459.605364 
L 223.011765 454.848966 
L 228.117647 447.463544 
L 233.223529 437.463032 
L 238.329412 436.659461 
L 243.435294 428.851351 
L 248.541176 400.549856 
L 253.647059 399.857763 
L 258.752941 392.388733 
L 263.858824 395.440445 
L 268.964706 384.450565 
L 274.070588 363.478753 
L 279.176471 365.96843 
L 284.282353 343.096846 
L 289.388235 335.980829 
L 294.494118 330.337252 
L 299.6 354.853138 
L 304.705882 346.64092 
L 309.811765 341.368936 
L 314.917647 337.109545 
L 320.023529 322.886801 
L 325.129412 328.716175 
L 330.235294 344.857271 
L 335.341176 351.699237 
L 340.447059 366.850965 
L 345.552941 358.610878 
L 350.658824 349.177046 
L 355.764706 338.948933 
L 360.870588 332.325278 
L 365.976471 352.68396 
L 371.082353 363.38121 
L 376.188235 357.32888 
L 381.294118 365.824438 
L 386.4 353.366763 
L 391.505882 325.492601 
L 396.611765 315.75685 
L 401.717647 331.410229 
L 406.823529 355.712448 
L 411.929412 379.903189 
L 417.035294 370.436843 
L 422.141176 357.01767 
L 427.247059 346.181073 
L 432.352941 325.645883 
L 437.458824 348.717199 
L 442.564706 365.476069 
L 447.670588 379.931058 
L 452.776471 371.988246 
L 457.882353 367.013537 
L 462.988235 354.815978 
L 468.094118 358.086002 
L 473.2 364.79791 
L 478.305882 392.523435 
L 483.411765 396.638834 
L 488.517647 382.351062 
L 493.623529 385.885845 
L 498.729412 356.046882 
L 503.835294 366.809161 
L 508.941176 367.7335 
L 514.047059 396.053574 
L 519.152941 383.210372 
L 524.258824 389.341665 
L 529.364706 374.607981 
L 534.470588 365.689735 
L 539.576471 372.192622 
L 544.682353 382.959546 
L 549.788235 387.650915 
L 554.894118 396.113958 
L 560 396.61561 
L 565.105882 399.407206 
L 570.211765 378.351786 
L 575.317647 370.506517 
L 580.423529 371.779225 
L 585.529412 390.82804 
L 590.635294 403.717692 
L 595.741176 387.270031 
L 600.847059 391.622321 
L 605.952941 385.151948 
L 611.058824 367.162175 
L 616.164706 378.737314 
L 621.270588 401.966557 
L 626.376471 403.438996 
L 631.482353 400.127169 
L 636.588235 387.739168 
L 641.694118 377.724722 
L 646.8 366.651233 
L 651.905882 365.620061 
L 657.011765 392.24474 
L 662.117647 393.006507 
L 667.223529 374.217807 
L 672.329412 365.606126 
L 677.435294 355.155057 
L 682.541176 338.103558 
L 687.647059 332.2138 
L 692.752941 361.518597 
L 697.858824 342.488362 
L 702.964706 320.875551 
L 708.070588 322.055361 
L 713.176471 299.118748 
L 718.282353 274.119791 
L 723.388235 285.964336 
L 728.494118 303.01119 
L 733.6 292.146724 
L 738.705882 271.839135 
L 743.811765 246.626512 
L 748.917647 231.358661 
L 754.023529 242.306737 
" style="fill:none;stroke:#1f77b4;stroke-linecap:square;stroke-width:1.5;"/>
   </g>
   <g id="line2d_34">
    <path clip-path="url(#pc722592363)" d="M 126 482.552915 
L 131.105882 483.346246 
L 136.211765 482.962704 
L 141.317647 482.013712 
L 146.423529 480.894714 
L 151.529412 480.756014 
L 156.635294 480.92005 
L 161.741176 481.709056 
L 166.847059 482.349513 
L 171.952941 481.673333 
L 177.058824 480.458061 
L 182.164706 480.110399 
L 187.270588 479.355954 
L 192.376471 478.913453 
L 197.482353 482.165822 
L 202.588235 475.44533 
L 207.694118 474.108905 
L 212.8 469.858654 
L 217.905882 458.553032 
L 223.011765 459.491926 
L 228.117647 454.471549 
L 233.223529 446.091312 
L 238.329412 435.384561 
L 243.435294 435.248728 
L 248.541176 427.449428 
L 253.647059 398.730255 
L 258.752941 400.967727 
L 263.858824 393.849887 
L 268.964706 395.879058 
L 274.070588 381.667489 
L 279.176471 359.031273 
L 284.282353 364.163597 
L 289.388235 342.5469 
L 294.494118 337.979505 
L 299.6 332.574647 
L 304.705882 355.795107 
L 309.811765 341.498036 
L 314.917647 333.702194 
L 320.023529 331.461138 
L 325.129412 321.561042 
L 330.235294 332.512075 
L 335.341176 349.116913 
L 340.447059 350.595481 
L 345.552941 360.030128 
L 350.658824 348.054546 
L 355.764706 341.680243 
L 360.870588 338.62043 
L 365.976471 338.207192 
L 371.082353 360.071908 
L 376.188235 363.890907 
L 381.294118 348.721609 
L 386.4 354.401848 
L 391.505882 344.503346 
L 396.611765 324.146309 
L 401.717647 323.450428 
L 406.823529 342.127849 
L 411.929412 359.537609 
L 417.035294 371.676293 
L 422.141176 352.784385 
L 427.247059 342.134876 
L 432.352941 343.569827 
L 437.458824 335.032319 
L 442.564706 363.9839 
L 447.670588 372.356128 
L 452.776471 371.954483 
L 457.882353 353.016865 
L 462.988235 350.344317 
L 468.094118 350.248997 
L 473.2 367.424767 
L 478.305882 378.75635 
L 483.411765 399.896075 
L 488.517647 388.981568 
L 493.623529 364.290287 
L 498.729412 370.945189 
L 503.835294 351.4156 
L 508.941176 376.626916 
L 514.047059 381.378401 
L 519.152941 403.25715 
L 524.258824 375.134745 
L 529.364706 373.26945 
L 534.470588 359.799707 
L 539.576471 361.952634 
L 544.682353 380.614074 
L 549.788235 394.811215 
L 554.894118 392.247533 
L 560 389.54385 
L 565.105882 382.258337 
L 570.211765 386.403326 
L 575.317647 373.090077 
L 580.423529 376.409265 
L 585.529412 383.224857 
L 590.635294 398.560898 
L 595.741176 399.899323 
L 600.847059 372.574864 
L 605.952941 377.626635 
L 611.058824 379.178266 
L 616.164706 371.245808 
L 621.270588 389.951473 
L 626.376471 410.028248 
L 631.482353 399.488928 
L 636.588235 386.543775 
L 641.694118 373.376739 
L 646.8 372.033792 
L 651.905882 371.964497 
L 657.011765 377.019027 
L 662.117647 400.88563 
L 667.223529 389.214302 
L 672.329412 359.998374 
L 677.435294 352.094919 
L 682.541176 350.651249 
L 687.647059 344.005437 
L 692.752941 343.798444 
L 697.858824 370.454873 
L 702.964706 338.103346 
L 708.070588 307.738077 
L 713.176471 310.946027 
L 718.282353 295.211992 
L 723.388235 279.761471 
L 728.494118 298.005309 
L 733.6 310.510145 
L 738.705882 287.130576 
L 743.811765 258.36085 
L 748.917647 234.85727 
L 754.023529 229.996704 
" style="fill:none;stroke:#ff7f0e;stroke-dasharray:5.55,2.4;stroke-dashoffset:0;stroke-width:1.5;"/>
   </g>
   <g id="line2d_35">
    <path clip-path="url(#pc722592363)" d="M 759.129412 251.721063 
L 764.235294 262.155125 
L 769.341176 264.426405 
L 774.447059 255.501324 
L 779.552941 240.770838 
L 784.658824 229.987128 
L 789.764706 229.923998 
L 794.870588 239.28484 
L 799.976471 249.685967 
L 805.082353 251.969615 
L 810.188235 243.092855 
L 815.294118 228.410263 
L 820.4 217.637996 
L 825.505882 217.541288 
L 830.611765 226.848831 
L 835.717647 237.217048 
L 840.823529 239.512909 
L 845.929412 230.684253 
L 851.035294 216.049438 
L 856.141176 205.288685 
L 861.247059 205.158604 
L 866.352941 214.413034 
L 871.458824 224.748368 
L 876.564706 227.056287 
L 881.670588 218.275518 
L 886.776471 203.688362 
L 891.882353 192.939196 
L 896.988235 192.775948 
L 902.094118 201.977449 
L 907.2 212.279925 
" style="fill:none;stroke:#d62728;stroke-dasharray:5.55,2.4;stroke-dashoffset:0;stroke-width:1.5;"/>
   </g>
   <g id="line2d_36">
    <path clip-path="url(#pc722592363)" d="M 126 481.599635 
L 131.105882 481.492801 
L 136.211765 481.506736 
L 141.317647 481.455642 
L 146.423529 481.27449 
L 151.529412 481.376678 
L 156.635294 481.065469 
L 161.741176 482.401771 
L 166.847059 482.832884 
L 171.952941 482.220147 
L 177.058824 481.189762 
L 182.164706 481.099131 
L 187.270588 480.196535 
L 192.376471 479.831658 
L 197.482353 482.986793 
L 202.588235 476.683976 
L 207.694118 474.694741 
L 212.8 470.356092 
L 217.905882 458.788693 
L 223.011765 458.372445 
L 228.117647 455.185878 
L 233.223529 443.933072 
L 238.329412 435.614445 
L 243.435294 433.48506 
L 248.541176 422.820578 
L 253.647059 399.310202 
L 258.752941 396.714628 
L 263.858824 388.831436 
L 268.964706 388.783338 
L 274.070588 382.774658 
L 279.176471 358.093948 
L 284.282353 350.042231 
L 289.388235 341.783042 
L 294.494118 330.716109 
L 299.6 329.138657 
L 304.705882 346.88388 
L 309.811765 336.284523 
L 314.917647 339.829553 
L 320.023529 319.880869 
L 325.129412 318.669703 
L 330.235294 323.66183 
L 335.341176 355.421462 
L 340.447059 344.73872 
L 345.552941 358.997695 
L 350.658824 356.352641 
L 355.764706 336.956761 
L 360.870588 339.035291 
L 365.976471 337.2855 
L 371.082353 360.158186 
L 376.188235 367.341168 
L 381.294118 351.610741 
L 386.4 359.801669 
L 391.505882 344.807204 
L 396.611765 322.923798 
L 401.717647 327.35859 
L 406.823529 336.707678 
L 411.929412 355.441387 
L 417.035294 380.919531 
L 422.141176 361.944165 
L 427.247059 341.547101 
L 432.352941 339.506271 
L 437.458824 336.096545 
L 442.564706 360.864756 
L 447.670588 373.899067 
L 452.776471 376.69276 
L 457.882353 362.407718 
L 462.988235 355.189909 
L 468.094118 342.692282 
L 473.2 370.777861 
L 478.305882 376.601778 
L 483.411765 403.286093 
L 488.517647 390.131519 
L 493.623529 376.286261 
L 498.729412 377.200152 
L 503.835294 352.059177 
L 508.941176 373.909007 
L 514.047059 382.721932 
L 519.152941 400.116848 
L 524.258824 374.237209 
L 529.364706 388.885242 
L 534.470588 357.83815 
L 539.576471 370.232091 
L 544.682353 373.148554 
L 549.788235 400.616779 
L 554.894118 381.961204 
L 560 394.75986 
L 565.105882 389.964187 
L 570.211765 387.999048 
L 575.317647 382.658414 
L 580.423529 374.536209 
L 585.529412 379.139103 
L 590.635294 390.819971 
L 595.741176 404.359678 
L 600.847059 384.344212 
L 605.952941 379.448422 
L 611.058824 382.191812 
L 616.164706 369.16164 
L 621.270588 387.248569 
L 626.376471 408.58727 
L 631.482353 395.365602 
L 636.588235 401.735688 
L 641.694118 379.338679 
L 646.8 367.139197 
L 651.905882 371.11405 
L 657.011765 379.126678 
L 662.117647 394.798142 
L 667.223529 387.011027 
L 672.329412 368.780968 
L 677.435294 358.841965 
L 682.541176 345.395817 
L 687.647059 339.263622 
L 692.752941 348.136201 
L 697.858824 361.253085 
L 702.964706 332.545029 
L 708.070588 313.431953 
L 713.176471 314.320833 
L 718.282353 288.238933 
L 723.388235 270.369461 
L 728.494118 303.814587 
L 733.6 293.855132 
L 738.705882 277.560963 
L 743.811765 269.545354 
L 748.917647 233.286058 
L 754.023529 215.659721 
" style="fill:none;stroke:#9467bd;stroke-dasharray:5.55,2.4;stroke-dashoffset:0;stroke-width:1.5;"/>
   </g>
   <g id="line2d_37">
    <path clip-path="url(#pc722592363)" d="M 759.129412 245.316786 
L 764.235294 258.345463 
L 769.341176 248.45016 
L 774.447059 233.820724 
L 779.552941 222.027986 
L 784.658824 209.332205 
L 789.764706 207.753492 
L 794.870588 210.756144 
L 799.976471 219.321758 
L 805.082353 211.64598 
L 810.188235 199.808831 
L 815.294118 188.147261 
L 820.4 178.269342 
L 825.505882 179.050169 
L 830.611765 180.111002 
L 835.717647 185.825268 
L 840.823529 179.341675 
L 845.929412 169.982776 
L 851.035294 161.323819 
L 856.141176 153.253869 
L 861.247059 152.327253 
L 866.352941 152.529499 
L 871.458824 156.006079 
L 876.564706 150.535652 
L 881.670588 142.883164 
L 886.776471 135.578103 
L 891.882353 128.924368 
L 896.988235 127.761979 
L 902.094118 127.15922 
L 907.2 129.022593 
" style="fill:none;stroke:#2ca02c;stroke-dasharray:5.55,2.4;stroke-dashoffset:0;stroke-width:1.5;"/>
   </g>
   <g id="patch_3">
    <path d="M 126 504 
L 126 69.12 
" style="fill:none;stroke:#000000;stroke-linecap:square;stroke-linejoin:miter;stroke-width:0.8;"/>
   </g>
   <g id="patch_4">
    <path d="M 907.2 504 
L 907.2 69.12 
" style="fill:none;stroke:#000000;stroke-linecap:square;stroke-linejoin:miter;stroke-width:0.8;"/>
   </g>
   <g id="patch_5">
    <path d="M 126 504 
L 907.2 504 
" style="fill:none;stroke:#000000;stroke-linecap:square;stroke-linejoin:miter;stroke-width:0.8;"/>
   </g>
   <g id="patch_6">
    <path d="M 126 69.12 
L 907.2 69.12 
" style="fill:none;stroke:#000000;stroke-linecap:square;stroke-linejoin:miter;stroke-width:0.8;"/>
   </g>
   <g id="text_11">
    <!-- New Cases -->
    <defs>
     <path d="M 9.8125 72.90625 
L 23.09375 72.90625 
L 55.421875 11.921875 
L 55.421875 72.90625 
L 64.984375 72.90625 
L 64.984375 0 
L 51.703125 0 
L 19.390625 60.984375 
L 19.390625 0 
L 9.8125 0 
z
" id="DejaVuSans-78"/>
     <path d="M 56.203125 29.59375 
L 56.203125 25.203125 
L 14.890625 25.203125 
Q 15.484375 15.921875 20.484375 11.0625 
Q 25.484375 6.203125 34.421875 6.203125 
Q 39.59375 6.203125 44.453125 7.46875 
Q 49.3125 8.734375 54.109375 11.28125 
L 54.109375 2.78125 
Q 49.265625 0.734375 44.1875 -0.34375 
Q 39.109375 -1.421875 33.890625 -1.421875 
Q 20.796875 -1.421875 13.15625 6.1875 
Q 5.515625 13.8125 5.515625 26.8125 
Q 5.515625 40.234375 12.765625 48.109375 
Q 20.015625 56 32.328125 56 
Q 43.359375 56 49.78125 48.890625 
Q 56.203125 41.796875 56.203125 29.59375 
z
M 47.21875 32.234375 
Q 47.125 39.59375 43.09375 43.984375 
Q 39.0625 48.390625 32.421875 48.390625 
Q 24.90625 48.390625 20.390625 44.140625 
Q 15.875 39.890625 15.1875 32.171875 
z
" id="DejaVuSans-101"/>
     <path d="M 4.203125 54.6875 
L 13.1875 54.6875 
L 24.421875 12.015625 
L 35.59375 54.6875 
L 46.1875 54.6875 
L 57.421875 12.015625 
L 68.609375 54.6875 
L 77.59375 54.6875 
L 63.28125 0 
L 52.6875 0 
L 40.921875 44.828125 
L 29.109375 0 
L 18.5 0 
z
" id="DejaVuSans-119"/>
     <path id="DejaVuSans-32"/>
     <path d="M 64.40625 67.28125 
L 64.40625 56.890625 
Q 59.421875 61.53125 53.78125 63.8125 
Q 48.140625 66.109375 41.796875 66.109375 
Q 29.296875 66.109375 22.65625 58.46875 
Q 16.015625 50.828125 16.015625 36.375 
Q 16.015625 21.96875 22.65625 14.328125 
Q 29.296875 6.6875 41.796875 6.6875 
Q 48.140625 6.6875 53.78125 8.984375 
Q 59.421875 11.28125 64.40625 15.921875 
L 64.40625 5.609375 
Q 59.234375 2.09375 53.4375 0.328125 
Q 47.65625 -1.421875 41.21875 -1.421875 
Q 24.65625 -1.421875 15.125 8.703125 
Q 5.609375 18.84375 5.609375 36.375 
Q 5.609375 53.953125 15.125 64.078125 
Q 24.65625 74.21875 41.21875 74.21875 
Q 47.75 74.21875 53.53125 72.484375 
Q 59.328125 70.75 64.40625 67.28125 
z
" id="DejaVuSans-67"/>
     <path d="M 44.28125 53.078125 
L 44.28125 44.578125 
Q 40.484375 46.53125 36.375 47.5 
Q 32.28125 48.484375 27.875 48.484375 
Q 21.1875 48.484375 17.84375 46.4375 
Q 14.5 44.390625 14.5 40.28125 
Q 14.5 37.15625 16.890625 35.375 
Q 19.28125 33.59375 26.515625 31.984375 
L 29.59375 31.296875 
Q 39.15625 29.25 43.1875 25.515625 
Q 47.21875 21.78125 47.21875 15.09375 
Q 47.21875 7.46875 41.1875 3.015625 
Q 35.15625 -1.421875 24.609375 -1.421875 
Q 20.21875 -1.421875 15.453125 -0.5625 
Q 10.6875 0.296875 5.421875 2 
L 5.421875 11.28125 
Q 10.40625 8.6875 15.234375 7.390625 
Q 20.0625 6.109375 24.8125 6.109375 
Q 31.15625 6.109375 34.5625 8.28125 
Q 37.984375 10.453125 37.984375 14.40625 
Q 37.984375 18.0625 35.515625 20.015625 
Q 33.0625 21.96875 24.703125 23.78125 
L 21.578125 24.515625 
Q 13.234375 26.265625 9.515625 29.90625 
Q 5.8125 33.546875 5.8125 39.890625 
Q 5.8125 47.609375 11.28125 51.796875 
Q 16.75 56 26.8125 56 
Q 31.78125 56 36.171875 55.265625 
Q 40.578125 54.546875 44.28125 53.078125 
z
" id="DejaVuSans-115"/>
    </defs>
    <g transform="translate(483.795938 63.12)scale(0.12 -0.12)">
     <use xlink:href="#DejaVuSans-78"/>
     <use x="74.804688" xlink:href="#DejaVuSans-101"/>
     <use x="136.328125" xlink:href="#DejaVuSans-119"/>
     <use x="218.115234" xlink:href="#DejaVuSans-32"/>
     <use x="249.902344" xlink:href="#DejaVuSans-67"/>
     <use x="319.726562" xlink:href="#DejaVuSans-97"/>
     <use x="381.005859" xlink:href="#DejaVuSans-115"/>
     <use x="433.105469" xlink:href="#DejaVuSans-101"/>
     <use x="494.628906" xlink:href="#DejaVuSans-115"/>
    </g>
   </g>
   <g id="legend_1">
    <g id="patch_7">
     <path d="M 133 165.18875 
L 297.348438 165.18875 
Q 299.348438 165.18875 299.348438 163.18875 
L 299.348438 76.12 
Q 299.348438 74.12 297.348438 74.12 
L 133 74.12 
Q 131 74.12 131 76.12 
L 131 163.18875 
Q 131 165.18875 133 165.18875 
z
" style="fill:#ffffff;opacity:0.8;stroke:#cccccc;stroke-linejoin:miter;"/>
    </g>
    <g id="line2d_38">
     <path d="M 135 82.218438 
L 155 82.218438 
" style="fill:none;stroke:#1f77b4;stroke-linecap:square;stroke-width:1.5;"/>
    </g>
    <g id="line2d_39"/>
    <g id="text_12">
     <!-- New Cases -->
     <g transform="translate(163 85.718438)scale(0.1 -0.1)">
      <use xlink:href="#DejaVuSans-78"/>
      <use x="74.804688" xlink:href="#DejaVuSans-101"/>
      <use x="136.328125" xlink:href="#DejaVuSans-119"/>
      <use x="218.115234" xlink:href="#DejaVuSans-32"/>
      <use x="249.902344" xlink:href="#DejaVuSans-67"/>
      <use x="319.726562" xlink:href="#DejaVuSans-97"/>
      <use x="381.005859" xlink:href="#DejaVuSans-115"/>
      <use x="433.105469" xlink:href="#DejaVuSans-101"/>
      <use x="494.628906" xlink:href="#DejaVuSans-115"/>
     </g>
    </g>
    <g id="line2d_40">
     <path d="M 135 96.896563 
L 155 96.896563 
" style="fill:none;stroke:#ff7f0e;stroke-dasharray:5.55,2.4;stroke-dashoffset:0;stroke-width:1.5;"/>
    </g>
    <g id="line2d_41"/>
    <g id="text_13">
     <!-- Pred -->
     <defs>
      <path d="M 19.671875 64.796875 
L 19.671875 37.40625 
L 32.078125 37.40625 
Q 38.96875 37.40625 42.71875 40.96875 
Q 46.484375 44.53125 46.484375 51.125 
Q 46.484375 57.671875 42.71875 61.234375 
Q 38.96875 64.796875 32.078125 64.796875 
z
M 9.8125 72.90625 
L 32.078125 72.90625 
Q 44.34375 72.90625 50.609375 67.359375 
Q 56.890625 61.8125 56.890625 51.125 
Q 56.890625 40.328125 50.609375 34.8125 
Q 44.34375 29.296875 32.078125 29.296875 
L 19.671875 29.296875 
L 19.671875 0 
L 9.8125 0 
z
" id="DejaVuSans-80"/>
      <path d="M 45.40625 46.390625 
L 45.40625 75.984375 
L 54.390625 75.984375 
L 54.390625 0 
L 45.40625 0 
L 45.40625 8.203125 
Q 42.578125 3.328125 38.25 0.953125 
Q 33.9375 -1.421875 27.875 -1.421875 
Q 17.96875 -1.421875 11.734375 6.484375 
Q 5.515625 14.40625 5.515625 27.296875 
Q 5.515625 40.1875 11.734375 48.09375 
Q 17.96875 56 27.875 56 
Q 33.9375 56 38.25 53.625 
Q 42.578125 51.265625 45.40625 46.390625 
z
M 14.796875 27.296875 
Q 14.796875 17.390625 18.875 11.75 
Q 22.953125 6.109375 30.078125 6.109375 
Q 37.203125 6.109375 41.296875 11.75 
Q 45.40625 17.390625 45.40625 27.296875 
Q 45.40625 37.203125 41.296875 42.84375 
Q 37.203125 48.484375 30.078125 48.484375 
Q 22.953125 48.484375 18.875 42.84375 
Q 14.796875 37.203125 14.796875 27.296875 
z
" id="DejaVuSans-100"/>
     </defs>
     <g transform="translate(163 100.396563)scale(0.1 -0.1)">
      <use xlink:href="#DejaVuSans-80"/>
      <use x="60.287109" xlink:href="#DejaVuSans-114"/>
      <use x="101.369141" xlink:href="#DejaVuSans-101"/>
      <use x="162.892578" xlink:href="#DejaVuSans-100"/>
     </g>
    </g>
    <g id="line2d_42">
     <path d="M 135 111.574688 
L 155 111.574688 
" style="fill:none;stroke:#d62728;stroke-dasharray:5.55,2.4;stroke-dashoffset:0;stroke-width:1.5;"/>
    </g>
    <g id="line2d_43"/>
    <g id="text_14">
     <!-- 30 Day Forecast -->
     <defs>
      <path d="M 40.578125 39.3125 
Q 47.65625 37.796875 51.625 33 
Q 55.609375 28.21875 55.609375 21.1875 
Q 55.609375 10.40625 48.1875 4.484375 
Q 40.765625 -1.421875 27.09375 -1.421875 
Q 22.515625 -1.421875 17.65625 -0.515625 
Q 12.796875 0.390625 7.625 2.203125 
L 7.625 11.71875 
Q 11.71875 9.328125 16.59375 8.109375 
Q 21.484375 6.890625 26.8125 6.890625 
Q 36.078125 6.890625 40.9375 10.546875 
Q 45.796875 14.203125 45.796875 21.1875 
Q 45.796875 27.640625 41.28125 31.265625 
Q 36.765625 34.90625 28.71875 34.90625 
L 20.21875 34.90625 
L 20.21875 43.015625 
L 29.109375 43.015625 
Q 36.375 43.015625 40.234375 45.921875 
Q 44.09375 48.828125 44.09375 54.296875 
Q 44.09375 59.90625 40.109375 62.90625 
Q 36.140625 65.921875 28.71875 65.921875 
Q 24.65625 65.921875 20.015625 65.03125 
Q 15.375 64.15625 9.8125 62.3125 
L 9.8125 71.09375 
Q 15.4375 72.65625 20.34375 73.4375 
Q 25.25 74.21875 29.59375 74.21875 
Q 40.828125 74.21875 47.359375 69.109375 
Q 53.90625 64.015625 53.90625 55.328125 
Q 53.90625 49.265625 50.4375 45.09375 
Q 46.96875 40.921875 40.578125 39.3125 
z
" id="DejaVuSans-51"/>
      <path d="M 19.671875 64.796875 
L 19.671875 8.109375 
L 31.59375 8.109375 
Q 46.6875 8.109375 53.6875 14.9375 
Q 60.6875 21.78125 60.6875 36.53125 
Q 60.6875 51.171875 53.6875 57.984375 
Q 46.6875 64.796875 31.59375 64.796875 
z
M 9.8125 72.90625 
L 30.078125 72.90625 
Q 51.265625 72.90625 61.171875 64.09375 
Q 71.09375 55.28125 71.09375 36.53125 
Q 71.09375 17.671875 61.125 8.828125 
Q 51.171875 0 30.078125 0 
L 9.8125 0 
z
" id="DejaVuSans-68"/>
      <path d="M 9.8125 72.90625 
L 51.703125 72.90625 
L 51.703125 64.59375 
L 19.671875 64.59375 
L 19.671875 43.109375 
L 48.578125 43.109375 
L 48.578125 34.8125 
L 19.671875 34.8125 
L 19.671875 0 
L 9.8125 0 
z
" id="DejaVuSans-70"/>
      <path d="M 30.609375 48.390625 
Q 23.390625 48.390625 19.1875 42.75 
Q 14.984375 37.109375 14.984375 27.296875 
Q 14.984375 17.484375 19.15625 11.84375 
Q 23.34375 6.203125 30.609375 6.203125 
Q 37.796875 6.203125 41.984375 11.859375 
Q 46.1875 17.53125 46.1875 27.296875 
Q 46.1875 37.015625 41.984375 42.703125 
Q 37.796875 48.390625 30.609375 48.390625 
z
M 30.609375 56 
Q 42.328125 56 49.015625 48.375 
Q 55.71875 40.765625 55.71875 27.296875 
Q 55.71875 13.875 49.015625 6.21875 
Q 42.328125 -1.421875 30.609375 -1.421875 
Q 18.84375 -1.421875 12.171875 6.21875 
Q 5.515625 13.875 5.515625 27.296875 
Q 5.515625 40.765625 12.171875 48.375 
Q 18.84375 56 30.609375 56 
z
" id="DejaVuSans-111"/>
      <path d="M 48.78125 52.59375 
L 48.78125 44.1875 
Q 44.96875 46.296875 41.140625 47.34375 
Q 37.3125 48.390625 33.40625 48.390625 
Q 24.65625 48.390625 19.8125 42.84375 
Q 14.984375 37.3125 14.984375 27.296875 
Q 14.984375 17.28125 19.8125 11.734375 
Q 24.65625 6.203125 33.40625 6.203125 
Q 37.3125 6.203125 41.140625 7.25 
Q 44.96875 8.296875 48.78125 10.40625 
L 48.78125 2.09375 
Q 45.015625 0.34375 40.984375 -0.53125 
Q 36.96875 -1.421875 32.421875 -1.421875 
Q 20.0625 -1.421875 12.78125 6.34375 
Q 5.515625 14.109375 5.515625 27.296875 
Q 5.515625 40.671875 12.859375 48.328125 
Q 20.21875 56 33.015625 56 
Q 37.15625 56 41.109375 55.140625 
Q 45.0625 54.296875 48.78125 52.59375 
z
" id="DejaVuSans-99"/>
      <path d="M 18.3125 70.21875 
L 18.3125 54.6875 
L 36.8125 54.6875 
L 36.8125 47.703125 
L 18.3125 47.703125 
L 18.3125 18.015625 
Q 18.3125 11.328125 20.140625 9.421875 
Q 21.96875 7.515625 27.59375 7.515625 
L 36.8125 7.515625 
L 36.8125 0 
L 27.59375 0 
Q 17.1875 0 13.234375 3.875 
Q 9.28125 7.765625 9.28125 18.015625 
L 9.28125 47.703125 
L 2.6875 47.703125 
L 2.6875 54.6875 
L 9.28125 54.6875 
L 9.28125 70.21875 
z
" id="DejaVuSans-116"/>
     </defs>
     <g transform="translate(163 115.074688)scale(0.1 -0.1)">
      <use xlink:href="#DejaVuSans-51"/>
      <use x="63.623047" xlink:href="#DejaVuSans-48"/>
      <use x="127.246094" xlink:href="#DejaVuSans-32"/>
      <use x="159.033203" xlink:href="#DejaVuSans-68"/>
      <use x="236.035156" xlink:href="#DejaVuSans-97"/>
      <use x="297.314453" xlink:href="#DejaVuSans-121"/>
      <use x="356.494141" xlink:href="#DejaVuSans-32"/>
      <use x="388.28125" xlink:href="#DejaVuSans-70"/>
      <use x="445.753906" xlink:href="#DejaVuSans-111"/>
      <use x="506.935547" xlink:href="#DejaVuSans-114"/>
      <use x="548.017578" xlink:href="#DejaVuSans-101"/>
      <use x="609.541016" xlink:href="#DejaVuSans-99"/>
      <use x="664.521484" xlink:href="#DejaVuSans-97"/>
      <use x="725.800781" xlink:href="#DejaVuSans-115"/>
      <use x="777.900391" xlink:href="#DejaVuSans-116"/>
     </g>
    </g>
    <g id="line2d_44">
     <path d="M 135 126.252813 
L 155 126.252813 
" style="fill:none;stroke:#9467bd;stroke-dasharray:5.55,2.4;stroke-dashoffset:0;stroke-width:1.5;"/>
    </g>
    <g id="line2d_45"/>
    <g id="text_15">
     <!-- Pred (AR-7,14) -->
     <defs>
      <path d="M 31 75.875 
Q 24.46875 64.65625 21.28125 53.65625 
Q 18.109375 42.671875 18.109375 31.390625 
Q 18.109375 20.125 21.3125 9.0625 
Q 24.515625 -2 31 -13.1875 
L 23.1875 -13.1875 
Q 15.875 -1.703125 12.234375 9.375 
Q 8.59375 20.453125 8.59375 31.390625 
Q 8.59375 42.28125 12.203125 53.3125 
Q 15.828125 64.359375 23.1875 75.875 
z
" id="DejaVuSans-40"/>
      <path d="M 44.390625 34.1875 
Q 47.5625 33.109375 50.5625 29.59375 
Q 53.5625 26.078125 56.59375 19.921875 
L 66.609375 0 
L 56 0 
L 46.6875 18.703125 
Q 43.0625 26.03125 39.671875 28.421875 
Q 36.28125 30.8125 30.421875 30.8125 
L 19.671875 30.8125 
L 19.671875 0 
L 9.8125 0 
L 9.8125 72.90625 
L 32.078125 72.90625 
Q 44.578125 72.90625 50.734375 67.671875 
Q 56.890625 62.453125 56.890625 51.90625 
Q 56.890625 45.015625 53.6875 40.46875 
Q 50.484375 35.9375 44.390625 34.1875 
z
M 19.671875 64.796875 
L 19.671875 38.921875 
L 32.078125 38.921875 
Q 39.203125 38.921875 42.84375 42.21875 
Q 46.484375 45.515625 46.484375 51.90625 
Q 46.484375 58.296875 42.84375 61.546875 
Q 39.203125 64.796875 32.078125 64.796875 
z
" id="DejaVuSans-82"/>
      <path d="M 4.890625 31.390625 
L 31.203125 31.390625 
L 31.203125 23.390625 
L 4.890625 23.390625 
z
" id="DejaVuSans-45"/>
      <path d="M 8.203125 72.90625 
L 55.078125 72.90625 
L 55.078125 68.703125 
L 28.609375 0 
L 18.3125 0 
L 43.21875 64.59375 
L 8.203125 64.59375 
z
" id="DejaVuSans-55"/>
      <path d="M 11.71875 12.40625 
L 22.015625 12.40625 
L 22.015625 4 
L 14.015625 -11.625 
L 7.71875 -11.625 
L 11.71875 4 
z
" id="DejaVuSans-44"/>
      <path d="M 12.40625 8.296875 
L 28.515625 8.296875 
L 28.515625 63.921875 
L 10.984375 60.40625 
L 10.984375 69.390625 
L 28.421875 72.90625 
L 38.28125 72.90625 
L 38.28125 8.296875 
L 54.390625 8.296875 
L 54.390625 0 
L 12.40625 0 
z
" id="DejaVuSans-49"/>
      <path d="M 8.015625 75.875 
L 15.828125 75.875 
Q 23.140625 64.359375 26.78125 53.3125 
Q 30.421875 42.28125 30.421875 31.390625 
Q 30.421875 20.453125 26.78125 9.375 
Q 23.140625 -1.703125 15.828125 -13.1875 
L 8.015625 -13.1875 
Q 14.5 -2 17.703125 9.0625 
Q 20.90625 20.125 20.90625 31.390625 
Q 20.90625 42.671875 17.703125 53.65625 
Q 14.5 64.65625 8.015625 75.875 
z
" id="DejaVuSans-41"/>
     </defs>
     <g transform="translate(163 129.752813)scale(0.1 -0.1)">
      <use xlink:href="#DejaVuSans-80"/>
      <use x="60.287109" xlink:href="#DejaVuSans-114"/>
      <use x="101.369141" xlink:href="#DejaVuSans-101"/>
      <use x="162.892578" xlink:href="#DejaVuSans-100"/>
      <use x="226.369141" xlink:href="#DejaVuSans-32"/>
      <use x="258.15625" xlink:href="#DejaVuSans-40"/>
      <use x="297.169922" xlink:href="#DejaVuSans-65"/>
      <use x="365.578125" xlink:href="#DejaVuSans-82"/>
      <use x="434.998047" xlink:href="#DejaVuSans-45"/>
      <use x="471.082031" xlink:href="#DejaVuSans-55"/>
      <use x="534.705078" xlink:href="#DejaVuSans-44"/>
      <use x="566.492188" xlink:href="#DejaVuSans-49"/>
      <use x="630.115234" xlink:href="#DejaVuSans-52"/>
      <use x="693.738281" xlink:href="#DejaVuSans-41"/>
     </g>
    </g>
    <g id="line2d_46">
     <path d="M 135 140.930938 
L 155 140.930938 
" style="fill:none;stroke:#2ca02c;stroke-dasharray:5.55,2.4;stroke-dashoffset:0;stroke-width:1.5;"/>
    </g>
    <g id="line2d_47"/>
    <g id="text_16">
     <!-- 30 Day Forecast (AR-7,14) -->
     <g transform="translate(163 144.430938)scale(0.1 -0.1)">
      <use xlink:href="#DejaVuSans-51"/>
      <use x="63.623047" xlink:href="#DejaVuSans-48"/>
      <use x="127.246094" xlink:href="#DejaVuSans-32"/>
      <use x="159.033203" xlink:href="#DejaVuSans-68"/>
      <use x="236.035156" xlink:href="#DejaVuSans-97"/>
      <use x="297.314453" xlink:href="#DejaVuSans-121"/>
      <use x="356.494141" xlink:href="#DejaVuSans-32"/>
      <use x="388.28125" xlink:href="#DejaVuSans-70"/>
      <use x="445.753906" xlink:href="#DejaVuSans-111"/>
      <use x="506.935547" xlink:href="#DejaVuSans-114"/>
      <use x="548.017578" xlink:href="#DejaVuSans-101"/>
      <use x="609.541016" xlink:href="#DejaVuSans-99"/>
      <use x="664.521484" xlink:href="#DejaVuSans-97"/>
      <use x="725.800781" xlink:href="#DejaVuSans-115"/>
      <use x="777.900391" xlink:href="#DejaVuSans-116"/>
      <use x="817.109375" xlink:href="#DejaVuSans-32"/>
      <use x="848.896484" xlink:href="#DejaVuSans-40"/>
      <use x="887.910156" xlink:href="#DejaVuSans-65"/>
      <use x="956.318359" xlink:href="#DejaVuSans-82"/>
      <use x="1025.738281" xlink:href="#DejaVuSans-45"/>
      <use x="1061.822266" xlink:href="#DejaVuSans-55"/>
      <use x="1125.445312" xlink:href="#DejaVuSans-44"/>
      <use x="1157.232422" xlink:href="#DejaVuSans-49"/>
      <use x="1220.855469" xlink:href="#DejaVuSans-52"/>
      <use x="1284.478516" xlink:href="#DejaVuSans-41"/>
     </g>
    </g>
    <g id="patch_8">
     <path d="M 135 159.109063 
L 155 159.109063 
L 155 152.109063 
L 135 152.109063 
z
" style="fill:#808080;opacity:0.2;stroke:#808080;stroke-linejoin:miter;"/>
    </g>
    <g id="text_17">
     <!-- 0.95 Conf-Int -->
     <defs>
      <path d="M 10.6875 12.40625 
L 21 12.40625 
L 21 0 
L 10.6875 0 
z
" id="DejaVuSans-46"/>
      <path d="M 10.984375 1.515625 
L 10.984375 10.5 
Q 14.703125 8.734375 18.5 7.8125 
Q 22.3125 6.890625 25.984375 6.890625 
Q 35.75 6.890625 40.890625 13.453125 
Q 46.046875 20.015625 46.78125 33.40625 
Q 43.953125 29.203125 39.59375 26.953125 
Q 35.25 24.703125 29.984375 24.703125 
Q 19.046875 24.703125 12.671875 31.3125 
Q 6.296875 37.9375 6.296875 49.421875 
Q 6.296875 60.640625 12.9375 67.421875 
Q 19.578125 74.21875 30.609375 74.21875 
Q 43.265625 74.21875 49.921875 64.515625 
Q 56.59375 54.828125 56.59375 36.375 
Q 56.59375 19.140625 48.40625 8.859375 
Q 40.234375 -1.421875 26.421875 -1.421875 
Q 22.703125 -1.421875 18.890625 -0.6875 
Q 15.09375 0.046875 10.984375 1.515625 
z
M 30.609375 32.421875 
Q 37.25 32.421875 41.125 36.953125 
Q 45.015625 41.5 45.015625 49.421875 
Q 45.015625 57.28125 41.125 61.84375 
Q 37.25 66.40625 30.609375 66.40625 
Q 23.96875 66.40625 20.09375 61.84375 
Q 16.21875 57.28125 16.21875 49.421875 
Q 16.21875 41.5 20.09375 36.953125 
Q 23.96875 32.421875 30.609375 32.421875 
z
" id="DejaVuSans-57"/>
      <path d="M 10.796875 72.90625 
L 49.515625 72.90625 
L 49.515625 64.59375 
L 19.828125 64.59375 
L 19.828125 46.734375 
Q 21.96875 47.46875 24.109375 47.828125 
Q 26.265625 48.1875 28.421875 48.1875 
Q 40.625 48.1875 47.75 41.5 
Q 54.890625 34.8125 54.890625 23.390625 
Q 54.890625 11.625 47.5625 5.09375 
Q 40.234375 -1.421875 26.90625 -1.421875 
Q 22.3125 -1.421875 17.546875 -0.640625 
Q 12.796875 0.140625 7.71875 1.703125 
L 7.71875 11.625 
Q 12.109375 9.234375 16.796875 8.0625 
Q 21.484375 6.890625 26.703125 6.890625 
Q 35.15625 6.890625 40.078125 11.328125 
Q 45.015625 15.765625 45.015625 23.390625 
Q 45.015625 31 40.078125 35.4375 
Q 35.15625 39.890625 26.703125 39.890625 
Q 22.75 39.890625 18.8125 39.015625 
Q 14.890625 38.140625 10.796875 36.28125 
z
" id="DejaVuSans-53"/>
      <path d="M 37.109375 75.984375 
L 37.109375 68.5 
L 28.515625 68.5 
Q 23.6875 68.5 21.796875 66.546875 
Q 19.921875 64.59375 19.921875 59.515625 
L 19.921875 54.6875 
L 34.71875 54.6875 
L 34.71875 47.703125 
L 19.921875 47.703125 
L 19.921875 0 
L 10.890625 0 
L 10.890625 47.703125 
L 2.296875 47.703125 
L 2.296875 54.6875 
L 10.890625 54.6875 
L 10.890625 58.5 
Q 10.890625 67.625 15.140625 71.796875 
Q 19.390625 75.984375 28.609375 75.984375 
z
" id="DejaVuSans-102"/>
      <path d="M 9.8125 72.90625 
L 19.671875 72.90625 
L 19.671875 0 
L 9.8125 0 
z
" id="DejaVuSans-73"/>
     </defs>
     <g transform="translate(163 159.109063)scale(0.1 -0.1)">
      <use xlink:href="#DejaVuSans-48"/>
      <use x="63.623047" xlink:href="#DejaVuSans-46"/>
      <use x="95.410156" xlink:href="#DejaVuSans-57"/>
      <use x="159.033203" xlink:href="#DejaVuSans-53"/>
      <use x="222.65625" xlink:href="#DejaVuSans-32"/>
      <use x="254.443359" xlink:href="#DejaVuSans-67"/>
      <use x="324.267578" xlink:href="#DejaVuSans-111"/>
      <use x="385.449219" xlink:href="#DejaVuSans-110"/>
      <use x="448.828125" xlink:href="#DejaVuSans-102"/>
      <use x="483.955078" xlink:href="#DejaVuSans-45"/>
      <use x="520.039062" xlink:href="#DejaVuSans-73"/>
      <use x="549.53125" xlink:href="#DejaVuSans-110"/>
      <use x="612.910156" xlink:href="#DejaVuSans-116"/>
     </g>
    </g>
   </g>
  </g>
 </g>
 <defs>
  <clipPath id="pc722592363">
   <rect height="434.88" width="781.2" x="126" y="69.12"/>
  </clipPath>
 </defs>
</svg>
